<mxfile host="app.diagrams.net" agent="Mozilla/5.0 (Windows NT 10.0; Win64; x64) AppleWebKit/537.36 (KHTML, like Gecko) Chrome/134.0.0.0 Safari/537.36 Edg/134.0.0.0" version="26.0.16" pages="2">
  <diagram name="第 1 页" id="Y37LdPhCyo7T8iD-wZ5e">
    <mxGraphModel dx="1584" dy="868" grid="0" gridSize="8" guides="1" tooltips="1" connect="1" arrows="1" fold="1" page="1" pageScale="1" pageWidth="1200" pageHeight="1600" math="0" shadow="0">
      <root>
        <mxCell id="0" />
        <mxCell id="1" parent="0" />
        <mxCell id="Uqj9MseJblNBVu8EgiHg-123" style="edgeStyle=orthogonalEdgeStyle;orthogonalLoop=1;jettySize=auto;html=1;exitX=1;exitY=0.5;exitDx=0;exitDy=0;" edge="1" parent="1" source="mGfkKU6VtConRxVcMwwn-1" target="Uqj9MseJblNBVu8EgiHg-57">
          <mxGeometry relative="1" as="geometry" />
        </mxCell>
        <mxCell id="mGfkKU6VtConRxVcMwwn-1" value="Medclip&lt;div&gt;Vision&lt;/div&gt;" style="rounded=1;whiteSpace=wrap;html=1;strokeWidth=2;fillColor=#f5f5f5;fontColor=#333333;strokeColor=#666666;" vertex="1" parent="1">
          <mxGeometry x="104" y="724.5" width="64" height="80" as="geometry" />
        </mxCell>
        <mxCell id="Uqj9MseJblNBVu8EgiHg-3" value="" style="edgeStyle=orthogonalEdgeStyle;orthogonalLoop=1;jettySize=auto;html=1;" edge="1" parent="1" source="Uqj9MseJblNBVu8EgiHg-1" target="mGfkKU6VtConRxVcMwwn-1">
          <mxGeometry relative="1" as="geometry" />
        </mxCell>
        <mxCell id="Uqj9MseJblNBVu8EgiHg-1" value="Xray image" style="text;html=1;align=center;verticalAlign=middle;whiteSpace=wrap;rounded=0;strokeWidth=1;fillColor=#dae8fc;strokeColor=#6c8ebf;" vertex="1" parent="1">
          <mxGeometry x="8" y="749.5" width="64" height="30" as="geometry" />
        </mxCell>
        <mxCell id="Uqj9MseJblNBVu8EgiHg-5" value="" style="shape=table;startSize=0;container=1;collapsible=0;childLayout=tableLayout;fontSize=16;fillColor=#fff2cc;strokeColor=#d6b656;movable=1;resizable=1;rotatable=1;deletable=1;editable=1;locked=0;connectable=1;" vertex="1" parent="1">
          <mxGeometry x="237" y="728" width="66" height="56" as="geometry" />
        </mxCell>
        <mxCell id="Uqj9MseJblNBVu8EgiHg-6" value="" style="shape=tableRow;horizontal=0;startSize=0;swimlaneHead=0;swimlaneBody=0;strokeColor=inherit;top=0;left=0;bottom=0;right=0;collapsible=0;dropTarget=0;fillColor=none;points=[[0,0.5],[1,0.5]];portConstraint=eastwest;fontSize=16;" vertex="1" parent="Uqj9MseJblNBVu8EgiHg-5">
          <mxGeometry width="66" height="19" as="geometry" />
        </mxCell>
        <mxCell id="Uqj9MseJblNBVu8EgiHg-7" value="" style="shape=partialRectangle;html=1;whiteSpace=wrap;connectable=0;strokeColor=inherit;overflow=hidden;fillColor=none;top=0;left=0;bottom=0;right=0;pointerEvents=1;fontSize=16;" vertex="1" parent="Uqj9MseJblNBVu8EgiHg-6">
          <mxGeometry width="21" height="19" as="geometry">
            <mxRectangle width="21" height="19" as="alternateBounds" />
          </mxGeometry>
        </mxCell>
        <mxCell id="Uqj9MseJblNBVu8EgiHg-8" value="" style="shape=partialRectangle;html=1;whiteSpace=wrap;connectable=0;strokeColor=inherit;overflow=hidden;fillColor=none;top=0;left=0;bottom=0;right=0;pointerEvents=1;fontSize=16;" vertex="1" parent="Uqj9MseJblNBVu8EgiHg-6">
          <mxGeometry x="21" width="24" height="19" as="geometry">
            <mxRectangle width="24" height="19" as="alternateBounds" />
          </mxGeometry>
        </mxCell>
        <mxCell id="Uqj9MseJblNBVu8EgiHg-9" value="" style="shape=partialRectangle;html=1;whiteSpace=wrap;connectable=0;strokeColor=inherit;overflow=hidden;fillColor=none;top=0;left=0;bottom=0;right=0;pointerEvents=1;fontSize=16;" vertex="1" parent="Uqj9MseJblNBVu8EgiHg-6">
          <mxGeometry x="45" width="21" height="19" as="geometry">
            <mxRectangle width="21" height="19" as="alternateBounds" />
          </mxGeometry>
        </mxCell>
        <mxCell id="Uqj9MseJblNBVu8EgiHg-10" value="" style="shape=tableRow;horizontal=0;startSize=0;swimlaneHead=0;swimlaneBody=0;strokeColor=inherit;top=0;left=0;bottom=0;right=0;collapsible=0;dropTarget=0;fillColor=none;points=[[0,0.5],[1,0.5]];portConstraint=eastwest;fontSize=16;" vertex="1" parent="Uqj9MseJblNBVu8EgiHg-5">
          <mxGeometry y="19" width="66" height="18" as="geometry" />
        </mxCell>
        <mxCell id="Uqj9MseJblNBVu8EgiHg-11" value="" style="shape=partialRectangle;html=1;whiteSpace=wrap;connectable=0;strokeColor=inherit;overflow=hidden;fillColor=none;top=0;left=0;bottom=0;right=0;pointerEvents=1;fontSize=16;" vertex="1" parent="Uqj9MseJblNBVu8EgiHg-10">
          <mxGeometry width="21" height="18" as="geometry">
            <mxRectangle width="21" height="18" as="alternateBounds" />
          </mxGeometry>
        </mxCell>
        <mxCell id="Uqj9MseJblNBVu8EgiHg-12" value="" style="shape=partialRectangle;html=1;whiteSpace=wrap;connectable=0;strokeColor=inherit;overflow=hidden;fillColor=none;top=0;left=0;bottom=0;right=0;pointerEvents=1;fontSize=16;" vertex="1" parent="Uqj9MseJblNBVu8EgiHg-10">
          <mxGeometry x="21" width="24" height="18" as="geometry">
            <mxRectangle width="24" height="18" as="alternateBounds" />
          </mxGeometry>
        </mxCell>
        <mxCell id="Uqj9MseJblNBVu8EgiHg-13" value="" style="shape=partialRectangle;html=1;whiteSpace=wrap;connectable=0;strokeColor=inherit;overflow=hidden;fillColor=none;top=0;left=0;bottom=0;right=0;pointerEvents=1;fontSize=16;" vertex="1" parent="Uqj9MseJblNBVu8EgiHg-10">
          <mxGeometry x="45" width="21" height="18" as="geometry">
            <mxRectangle width="21" height="18" as="alternateBounds" />
          </mxGeometry>
        </mxCell>
        <mxCell id="Uqj9MseJblNBVu8EgiHg-14" value="" style="shape=tableRow;horizontal=0;startSize=0;swimlaneHead=0;swimlaneBody=0;strokeColor=inherit;top=0;left=0;bottom=0;right=0;collapsible=0;dropTarget=0;fillColor=none;points=[[0,0.5],[1,0.5]];portConstraint=eastwest;fontSize=16;" vertex="1" parent="Uqj9MseJblNBVu8EgiHg-5">
          <mxGeometry y="37" width="66" height="19" as="geometry" />
        </mxCell>
        <mxCell id="Uqj9MseJblNBVu8EgiHg-15" value="" style="shape=partialRectangle;html=1;whiteSpace=wrap;connectable=0;strokeColor=inherit;overflow=hidden;fillColor=none;top=0;left=0;bottom=0;right=0;pointerEvents=1;fontSize=16;" vertex="1" parent="Uqj9MseJblNBVu8EgiHg-14">
          <mxGeometry width="21" height="19" as="geometry">
            <mxRectangle width="21" height="19" as="alternateBounds" />
          </mxGeometry>
        </mxCell>
        <mxCell id="Uqj9MseJblNBVu8EgiHg-16" value="" style="shape=partialRectangle;html=1;whiteSpace=wrap;connectable=0;strokeColor=inherit;overflow=hidden;fillColor=none;top=0;left=0;bottom=0;right=0;pointerEvents=1;fontSize=16;" vertex="1" parent="Uqj9MseJblNBVu8EgiHg-14">
          <mxGeometry x="21" width="24" height="19" as="geometry">
            <mxRectangle width="24" height="19" as="alternateBounds" />
          </mxGeometry>
        </mxCell>
        <mxCell id="Uqj9MseJblNBVu8EgiHg-17" value="" style="shape=partialRectangle;html=1;whiteSpace=wrap;connectable=0;strokeColor=inherit;overflow=hidden;fillColor=none;top=0;left=0;bottom=0;right=0;pointerEvents=1;fontSize=16;" vertex="1" parent="Uqj9MseJblNBVu8EgiHg-14">
          <mxGeometry x="45" width="21" height="19" as="geometry">
            <mxRectangle width="21" height="19" as="alternateBounds" />
          </mxGeometry>
        </mxCell>
        <mxCell id="Uqj9MseJblNBVu8EgiHg-44" value="" style="shape=table;startSize=0;container=1;collapsible=0;childLayout=tableLayout;fontSize=16;fillColor=#fff2cc;strokeColor=#d6b656;movable=0;resizable=0;rotatable=0;deletable=0;editable=0;locked=1;connectable=0;" vertex="1" parent="1">
          <mxGeometry x="232" y="732" width="66" height="56" as="geometry" />
        </mxCell>
        <mxCell id="Uqj9MseJblNBVu8EgiHg-45" value="" style="shape=tableRow;horizontal=0;startSize=0;swimlaneHead=0;swimlaneBody=0;strokeColor=inherit;top=0;left=0;bottom=0;right=0;collapsible=0;dropTarget=0;fillColor=none;points=[[0,0.5],[1,0.5]];portConstraint=eastwest;fontSize=16;" vertex="1" parent="Uqj9MseJblNBVu8EgiHg-44">
          <mxGeometry width="66" height="19" as="geometry" />
        </mxCell>
        <mxCell id="Uqj9MseJblNBVu8EgiHg-46" value="" style="shape=partialRectangle;html=1;whiteSpace=wrap;connectable=0;strokeColor=inherit;overflow=hidden;fillColor=none;top=0;left=0;bottom=0;right=0;pointerEvents=1;fontSize=16;" vertex="1" parent="Uqj9MseJblNBVu8EgiHg-45">
          <mxGeometry width="21" height="19" as="geometry">
            <mxRectangle width="21" height="19" as="alternateBounds" />
          </mxGeometry>
        </mxCell>
        <mxCell id="Uqj9MseJblNBVu8EgiHg-47" value="" style="shape=partialRectangle;html=1;whiteSpace=wrap;connectable=0;strokeColor=inherit;overflow=hidden;fillColor=none;top=0;left=0;bottom=0;right=0;pointerEvents=1;fontSize=16;" vertex="1" parent="Uqj9MseJblNBVu8EgiHg-45">
          <mxGeometry x="21" width="24" height="19" as="geometry">
            <mxRectangle width="24" height="19" as="alternateBounds" />
          </mxGeometry>
        </mxCell>
        <mxCell id="Uqj9MseJblNBVu8EgiHg-48" value="" style="shape=partialRectangle;html=1;whiteSpace=wrap;connectable=0;strokeColor=inherit;overflow=hidden;fillColor=none;top=0;left=0;bottom=0;right=0;pointerEvents=1;fontSize=16;" vertex="1" parent="Uqj9MseJblNBVu8EgiHg-45">
          <mxGeometry x="45" width="21" height="19" as="geometry">
            <mxRectangle width="21" height="19" as="alternateBounds" />
          </mxGeometry>
        </mxCell>
        <mxCell id="Uqj9MseJblNBVu8EgiHg-49" value="" style="shape=tableRow;horizontal=0;startSize=0;swimlaneHead=0;swimlaneBody=0;strokeColor=inherit;top=0;left=0;bottom=0;right=0;collapsible=0;dropTarget=0;fillColor=none;points=[[0,0.5],[1,0.5]];portConstraint=eastwest;fontSize=16;" vertex="1" parent="Uqj9MseJblNBVu8EgiHg-44">
          <mxGeometry y="19" width="66" height="18" as="geometry" />
        </mxCell>
        <mxCell id="Uqj9MseJblNBVu8EgiHg-50" value="" style="shape=partialRectangle;html=1;whiteSpace=wrap;connectable=0;strokeColor=inherit;overflow=hidden;fillColor=none;top=0;left=0;bottom=0;right=0;pointerEvents=1;fontSize=16;" vertex="1" parent="Uqj9MseJblNBVu8EgiHg-49">
          <mxGeometry width="21" height="18" as="geometry">
            <mxRectangle width="21" height="18" as="alternateBounds" />
          </mxGeometry>
        </mxCell>
        <mxCell id="Uqj9MseJblNBVu8EgiHg-51" value="" style="shape=partialRectangle;html=1;whiteSpace=wrap;connectable=0;strokeColor=inherit;overflow=hidden;fillColor=none;top=0;left=0;bottom=0;right=0;pointerEvents=1;fontSize=16;" vertex="1" parent="Uqj9MseJblNBVu8EgiHg-49">
          <mxGeometry x="21" width="24" height="18" as="geometry">
            <mxRectangle width="24" height="18" as="alternateBounds" />
          </mxGeometry>
        </mxCell>
        <mxCell id="Uqj9MseJblNBVu8EgiHg-52" value="" style="shape=partialRectangle;html=1;whiteSpace=wrap;connectable=0;strokeColor=inherit;overflow=hidden;fillColor=none;top=0;left=0;bottom=0;right=0;pointerEvents=1;fontSize=16;" vertex="1" parent="Uqj9MseJblNBVu8EgiHg-49">
          <mxGeometry x="45" width="21" height="18" as="geometry">
            <mxRectangle width="21" height="18" as="alternateBounds" />
          </mxGeometry>
        </mxCell>
        <mxCell id="Uqj9MseJblNBVu8EgiHg-53" value="" style="shape=tableRow;horizontal=0;startSize=0;swimlaneHead=0;swimlaneBody=0;strokeColor=inherit;top=0;left=0;bottom=0;right=0;collapsible=0;dropTarget=0;fillColor=none;points=[[0,0.5],[1,0.5]];portConstraint=eastwest;fontSize=16;" vertex="1" parent="Uqj9MseJblNBVu8EgiHg-44">
          <mxGeometry y="37" width="66" height="19" as="geometry" />
        </mxCell>
        <mxCell id="Uqj9MseJblNBVu8EgiHg-54" value="" style="shape=partialRectangle;html=1;whiteSpace=wrap;connectable=0;strokeColor=inherit;overflow=hidden;fillColor=none;top=0;left=0;bottom=0;right=0;pointerEvents=1;fontSize=16;" vertex="1" parent="Uqj9MseJblNBVu8EgiHg-53">
          <mxGeometry width="21" height="19" as="geometry">
            <mxRectangle width="21" height="19" as="alternateBounds" />
          </mxGeometry>
        </mxCell>
        <mxCell id="Uqj9MseJblNBVu8EgiHg-55" value="" style="shape=partialRectangle;html=1;whiteSpace=wrap;connectable=0;strokeColor=inherit;overflow=hidden;fillColor=none;top=0;left=0;bottom=0;right=0;pointerEvents=1;fontSize=16;" vertex="1" parent="Uqj9MseJblNBVu8EgiHg-53">
          <mxGeometry x="21" width="24" height="19" as="geometry">
            <mxRectangle width="24" height="19" as="alternateBounds" />
          </mxGeometry>
        </mxCell>
        <mxCell id="Uqj9MseJblNBVu8EgiHg-56" value="" style="shape=partialRectangle;html=1;whiteSpace=wrap;connectable=0;strokeColor=inherit;overflow=hidden;fillColor=none;top=0;left=0;bottom=0;right=0;pointerEvents=1;fontSize=16;" vertex="1" parent="Uqj9MseJblNBVu8EgiHg-53">
          <mxGeometry x="45" width="21" height="19" as="geometry">
            <mxRectangle width="21" height="19" as="alternateBounds" />
          </mxGeometry>
        </mxCell>
        <mxCell id="Uqj9MseJblNBVu8EgiHg-83" value="" style="shape=table;startSize=0;container=1;collapsible=0;childLayout=tableLayout;fontSize=16;fillColor=#d5e8d4;strokeColor=#82b366;movable=1;resizable=1;rotatable=1;deletable=1;editable=1;locked=0;connectable=1;" vertex="1" parent="1">
          <mxGeometry x="237" y="835" width="66" height="57" as="geometry" />
        </mxCell>
        <mxCell id="Uqj9MseJblNBVu8EgiHg-84" value="" style="shape=tableRow;horizontal=0;startSize=0;swimlaneHead=0;swimlaneBody=0;strokeColor=inherit;top=0;left=0;bottom=0;right=0;collapsible=0;dropTarget=0;fillColor=none;points=[[0,0.5],[1,0.5]];portConstraint=eastwest;fontSize=16;" vertex="1" parent="Uqj9MseJblNBVu8EgiHg-83">
          <mxGeometry width="66" height="20" as="geometry" />
        </mxCell>
        <mxCell id="Uqj9MseJblNBVu8EgiHg-85" value="" style="shape=partialRectangle;html=1;whiteSpace=wrap;connectable=0;strokeColor=inherit;overflow=hidden;fillColor=none;top=0;left=0;bottom=0;right=0;pointerEvents=1;fontSize=16;" vertex="1" parent="Uqj9MseJblNBVu8EgiHg-84">
          <mxGeometry width="21" height="20" as="geometry">
            <mxRectangle width="21" height="20" as="alternateBounds" />
          </mxGeometry>
        </mxCell>
        <mxCell id="Uqj9MseJblNBVu8EgiHg-86" value="" style="shape=partialRectangle;html=1;whiteSpace=wrap;connectable=0;strokeColor=inherit;overflow=hidden;fillColor=none;top=0;left=0;bottom=0;right=0;pointerEvents=1;fontSize=16;" vertex="1" parent="Uqj9MseJblNBVu8EgiHg-84">
          <mxGeometry x="21" width="24" height="20" as="geometry">
            <mxRectangle width="24" height="20" as="alternateBounds" />
          </mxGeometry>
        </mxCell>
        <mxCell id="Uqj9MseJblNBVu8EgiHg-87" value="" style="shape=partialRectangle;html=1;whiteSpace=wrap;connectable=0;strokeColor=inherit;overflow=hidden;fillColor=none;top=0;left=0;bottom=0;right=0;pointerEvents=1;fontSize=16;" vertex="1" parent="Uqj9MseJblNBVu8EgiHg-84">
          <mxGeometry x="45" width="21" height="20" as="geometry">
            <mxRectangle width="21" height="20" as="alternateBounds" />
          </mxGeometry>
        </mxCell>
        <mxCell id="Uqj9MseJblNBVu8EgiHg-88" value="" style="shape=tableRow;horizontal=0;startSize=0;swimlaneHead=0;swimlaneBody=0;strokeColor=inherit;top=0;left=0;bottom=0;right=0;collapsible=0;dropTarget=0;fillColor=none;points=[[0,0.5],[1,0.5]];portConstraint=eastwest;fontSize=16;" vertex="1" parent="Uqj9MseJblNBVu8EgiHg-83">
          <mxGeometry y="20" width="66" height="18" as="geometry" />
        </mxCell>
        <mxCell id="Uqj9MseJblNBVu8EgiHg-89" value="" style="shape=partialRectangle;html=1;whiteSpace=wrap;connectable=0;strokeColor=inherit;overflow=hidden;fillColor=none;top=0;left=0;bottom=0;right=0;pointerEvents=1;fontSize=16;" vertex="1" parent="Uqj9MseJblNBVu8EgiHg-88">
          <mxGeometry width="21" height="18" as="geometry">
            <mxRectangle width="21" height="18" as="alternateBounds" />
          </mxGeometry>
        </mxCell>
        <mxCell id="Uqj9MseJblNBVu8EgiHg-90" value="" style="shape=partialRectangle;html=1;whiteSpace=wrap;connectable=0;strokeColor=inherit;overflow=hidden;fillColor=none;top=0;left=0;bottom=0;right=0;pointerEvents=1;fontSize=16;" vertex="1" parent="Uqj9MseJblNBVu8EgiHg-88">
          <mxGeometry x="21" width="24" height="18" as="geometry">
            <mxRectangle width="24" height="18" as="alternateBounds" />
          </mxGeometry>
        </mxCell>
        <mxCell id="Uqj9MseJblNBVu8EgiHg-91" value="" style="shape=partialRectangle;html=1;whiteSpace=wrap;connectable=0;strokeColor=inherit;overflow=hidden;fillColor=none;top=0;left=0;bottom=0;right=0;pointerEvents=1;fontSize=16;" vertex="1" parent="Uqj9MseJblNBVu8EgiHg-88">
          <mxGeometry x="45" width="21" height="18" as="geometry">
            <mxRectangle width="21" height="18" as="alternateBounds" />
          </mxGeometry>
        </mxCell>
        <mxCell id="Uqj9MseJblNBVu8EgiHg-92" value="" style="shape=tableRow;horizontal=0;startSize=0;swimlaneHead=0;swimlaneBody=0;strokeColor=inherit;top=0;left=0;bottom=0;right=0;collapsible=0;dropTarget=0;fillColor=none;points=[[0,0.5],[1,0.5]];portConstraint=eastwest;fontSize=16;" vertex="1" parent="Uqj9MseJblNBVu8EgiHg-83">
          <mxGeometry y="38" width="66" height="19" as="geometry" />
        </mxCell>
        <mxCell id="Uqj9MseJblNBVu8EgiHg-93" value="" style="shape=partialRectangle;html=1;whiteSpace=wrap;connectable=0;strokeColor=inherit;overflow=hidden;fillColor=none;top=0;left=0;bottom=0;right=0;pointerEvents=1;fontSize=16;" vertex="1" parent="Uqj9MseJblNBVu8EgiHg-92">
          <mxGeometry width="21" height="19" as="geometry">
            <mxRectangle width="21" height="19" as="alternateBounds" />
          </mxGeometry>
        </mxCell>
        <mxCell id="Uqj9MseJblNBVu8EgiHg-94" value="" style="shape=partialRectangle;html=1;whiteSpace=wrap;connectable=0;strokeColor=inherit;overflow=hidden;fillColor=none;top=0;left=0;bottom=0;right=0;pointerEvents=1;fontSize=16;" vertex="1" parent="Uqj9MseJblNBVu8EgiHg-92">
          <mxGeometry x="21" width="24" height="19" as="geometry">
            <mxRectangle width="24" height="19" as="alternateBounds" />
          </mxGeometry>
        </mxCell>
        <mxCell id="Uqj9MseJblNBVu8EgiHg-95" value="" style="shape=partialRectangle;html=1;whiteSpace=wrap;connectable=0;strokeColor=inherit;overflow=hidden;fillColor=none;top=0;left=0;bottom=0;right=0;pointerEvents=1;fontSize=16;" vertex="1" parent="Uqj9MseJblNBVu8EgiHg-92">
          <mxGeometry x="45" width="21" height="19" as="geometry">
            <mxRectangle width="21" height="19" as="alternateBounds" />
          </mxGeometry>
        </mxCell>
        <mxCell id="Uqj9MseJblNBVu8EgiHg-57" value="" style="shape=table;startSize=0;container=1;collapsible=0;childLayout=tableLayout;fontSize=16;fillColor=#fff2cc;strokeColor=#d6b656;" vertex="1" parent="1">
          <mxGeometry x="229" y="737" width="64" height="55" as="geometry" />
        </mxCell>
        <mxCell id="Uqj9MseJblNBVu8EgiHg-58" value="" style="shape=tableRow;horizontal=0;startSize=0;swimlaneHead=0;swimlaneBody=0;strokeColor=inherit;top=0;left=0;bottom=0;right=0;collapsible=0;dropTarget=0;fillColor=none;points=[[0,0.5],[1,0.5]];portConstraint=eastwest;fontSize=16;" vertex="1" parent="Uqj9MseJblNBVu8EgiHg-57">
          <mxGeometry width="64" height="19" as="geometry" />
        </mxCell>
        <mxCell id="Uqj9MseJblNBVu8EgiHg-59" value="" style="shape=partialRectangle;html=1;whiteSpace=wrap;connectable=0;strokeColor=inherit;overflow=hidden;fillColor=none;top=0;left=0;bottom=0;right=0;pointerEvents=1;fontSize=16;" vertex="1" parent="Uqj9MseJblNBVu8EgiHg-58">
          <mxGeometry width="22" height="19" as="geometry">
            <mxRectangle width="22" height="19" as="alternateBounds" />
          </mxGeometry>
        </mxCell>
        <mxCell id="Uqj9MseJblNBVu8EgiHg-60" value="" style="shape=partialRectangle;html=1;whiteSpace=wrap;connectable=0;strokeColor=inherit;overflow=hidden;fillColor=none;top=0;left=0;bottom=0;right=0;pointerEvents=1;fontSize=16;" vertex="1" parent="Uqj9MseJblNBVu8EgiHg-58">
          <mxGeometry x="22" width="23" height="19" as="geometry">
            <mxRectangle width="23" height="19" as="alternateBounds" />
          </mxGeometry>
        </mxCell>
        <mxCell id="Uqj9MseJblNBVu8EgiHg-61" value="" style="shape=partialRectangle;html=1;whiteSpace=wrap;connectable=0;strokeColor=inherit;overflow=hidden;fillColor=none;top=0;left=0;bottom=0;right=0;pointerEvents=1;fontSize=16;" vertex="1" parent="Uqj9MseJblNBVu8EgiHg-58">
          <mxGeometry x="45" width="19" height="19" as="geometry">
            <mxRectangle width="19" height="19" as="alternateBounds" />
          </mxGeometry>
        </mxCell>
        <mxCell id="Uqj9MseJblNBVu8EgiHg-62" value="" style="shape=tableRow;horizontal=0;startSize=0;swimlaneHead=0;swimlaneBody=0;strokeColor=inherit;top=0;left=0;bottom=0;right=0;collapsible=0;dropTarget=0;fillColor=none;points=[[0,0.5],[1,0.5]];portConstraint=eastwest;fontSize=16;" vertex="1" parent="Uqj9MseJblNBVu8EgiHg-57">
          <mxGeometry y="19" width="64" height="17" as="geometry" />
        </mxCell>
        <mxCell id="Uqj9MseJblNBVu8EgiHg-63" value="" style="shape=partialRectangle;html=1;whiteSpace=wrap;connectable=0;strokeColor=inherit;overflow=hidden;fillColor=none;top=0;left=0;bottom=0;right=0;pointerEvents=1;fontSize=16;" vertex="1" parent="Uqj9MseJblNBVu8EgiHg-62">
          <mxGeometry width="22" height="17" as="geometry">
            <mxRectangle width="22" height="17" as="alternateBounds" />
          </mxGeometry>
        </mxCell>
        <mxCell id="Uqj9MseJblNBVu8EgiHg-64" value="" style="shape=partialRectangle;html=1;whiteSpace=wrap;connectable=0;strokeColor=inherit;overflow=hidden;fillColor=none;top=0;left=0;bottom=0;right=0;pointerEvents=1;fontSize=16;" vertex="1" parent="Uqj9MseJblNBVu8EgiHg-62">
          <mxGeometry x="22" width="23" height="17" as="geometry">
            <mxRectangle width="23" height="17" as="alternateBounds" />
          </mxGeometry>
        </mxCell>
        <mxCell id="Uqj9MseJblNBVu8EgiHg-65" value="" style="shape=partialRectangle;html=1;whiteSpace=wrap;connectable=0;strokeColor=inherit;overflow=hidden;fillColor=none;top=0;left=0;bottom=0;right=0;pointerEvents=1;fontSize=16;" vertex="1" parent="Uqj9MseJblNBVu8EgiHg-62">
          <mxGeometry x="45" width="19" height="17" as="geometry">
            <mxRectangle width="19" height="17" as="alternateBounds" />
          </mxGeometry>
        </mxCell>
        <mxCell id="Uqj9MseJblNBVu8EgiHg-66" value="" style="shape=tableRow;horizontal=0;startSize=0;swimlaneHead=0;swimlaneBody=0;strokeColor=inherit;top=0;left=0;bottom=0;right=0;collapsible=0;dropTarget=0;fillColor=none;points=[[0,0.5],[1,0.5]];portConstraint=eastwest;fontSize=16;" vertex="1" parent="Uqj9MseJblNBVu8EgiHg-57">
          <mxGeometry y="36" width="64" height="19" as="geometry" />
        </mxCell>
        <mxCell id="Uqj9MseJblNBVu8EgiHg-67" value="" style="shape=partialRectangle;html=1;whiteSpace=wrap;connectable=0;strokeColor=inherit;overflow=hidden;fillColor=none;top=0;left=0;bottom=0;right=0;pointerEvents=1;fontSize=16;" vertex="1" parent="Uqj9MseJblNBVu8EgiHg-66">
          <mxGeometry width="22" height="19" as="geometry">
            <mxRectangle width="22" height="19" as="alternateBounds" />
          </mxGeometry>
        </mxCell>
        <mxCell id="Uqj9MseJblNBVu8EgiHg-68" value="" style="shape=partialRectangle;html=1;whiteSpace=wrap;connectable=0;strokeColor=inherit;overflow=hidden;fillColor=none;top=0;left=0;bottom=0;right=0;pointerEvents=1;fontSize=16;" vertex="1" parent="Uqj9MseJblNBVu8EgiHg-66">
          <mxGeometry x="22" width="23" height="19" as="geometry">
            <mxRectangle width="23" height="19" as="alternateBounds" />
          </mxGeometry>
        </mxCell>
        <mxCell id="Uqj9MseJblNBVu8EgiHg-69" value="" style="shape=partialRectangle;html=1;whiteSpace=wrap;connectable=0;strokeColor=inherit;overflow=hidden;fillColor=none;top=0;left=0;bottom=0;right=0;pointerEvents=1;fontSize=16;" vertex="1" parent="Uqj9MseJblNBVu8EgiHg-66">
          <mxGeometry x="45" width="19" height="19" as="geometry">
            <mxRectangle width="19" height="19" as="alternateBounds" />
          </mxGeometry>
        </mxCell>
        <mxCell id="Uqj9MseJblNBVu8EgiHg-109" value="" style="shape=table;startSize=0;container=1;collapsible=0;childLayout=tableLayout;fontSize=16;fillColor=#d5e8d4;strokeColor=#82b366;movable=0;resizable=0;rotatable=0;deletable=0;editable=0;locked=1;connectable=0;" vertex="1" parent="1">
          <mxGeometry x="232" y="840" width="66" height="57" as="geometry" />
        </mxCell>
        <mxCell id="Uqj9MseJblNBVu8EgiHg-110" value="" style="shape=tableRow;horizontal=0;startSize=0;swimlaneHead=0;swimlaneBody=0;strokeColor=inherit;top=0;left=0;bottom=0;right=0;collapsible=0;dropTarget=0;fillColor=none;points=[[0,0.5],[1,0.5]];portConstraint=eastwest;fontSize=16;" vertex="1" parent="Uqj9MseJblNBVu8EgiHg-109">
          <mxGeometry width="66" height="20" as="geometry" />
        </mxCell>
        <mxCell id="Uqj9MseJblNBVu8EgiHg-111" value="" style="shape=partialRectangle;html=1;whiteSpace=wrap;connectable=0;strokeColor=inherit;overflow=hidden;fillColor=none;top=0;left=0;bottom=0;right=0;pointerEvents=1;fontSize=16;" vertex="1" parent="Uqj9MseJblNBVu8EgiHg-110">
          <mxGeometry width="21" height="20" as="geometry">
            <mxRectangle width="21" height="20" as="alternateBounds" />
          </mxGeometry>
        </mxCell>
        <mxCell id="Uqj9MseJblNBVu8EgiHg-112" value="" style="shape=partialRectangle;html=1;whiteSpace=wrap;connectable=0;strokeColor=inherit;overflow=hidden;fillColor=none;top=0;left=0;bottom=0;right=0;pointerEvents=1;fontSize=16;" vertex="1" parent="Uqj9MseJblNBVu8EgiHg-110">
          <mxGeometry x="21" width="24" height="20" as="geometry">
            <mxRectangle width="24" height="20" as="alternateBounds" />
          </mxGeometry>
        </mxCell>
        <mxCell id="Uqj9MseJblNBVu8EgiHg-113" value="" style="shape=partialRectangle;html=1;whiteSpace=wrap;connectable=0;strokeColor=inherit;overflow=hidden;fillColor=none;top=0;left=0;bottom=0;right=0;pointerEvents=1;fontSize=16;" vertex="1" parent="Uqj9MseJblNBVu8EgiHg-110">
          <mxGeometry x="45" width="21" height="20" as="geometry">
            <mxRectangle width="21" height="20" as="alternateBounds" />
          </mxGeometry>
        </mxCell>
        <mxCell id="Uqj9MseJblNBVu8EgiHg-114" value="" style="shape=tableRow;horizontal=0;startSize=0;swimlaneHead=0;swimlaneBody=0;strokeColor=inherit;top=0;left=0;bottom=0;right=0;collapsible=0;dropTarget=0;fillColor=none;points=[[0,0.5],[1,0.5]];portConstraint=eastwest;fontSize=16;" vertex="1" parent="Uqj9MseJblNBVu8EgiHg-109">
          <mxGeometry y="20" width="66" height="18" as="geometry" />
        </mxCell>
        <mxCell id="Uqj9MseJblNBVu8EgiHg-115" value="" style="shape=partialRectangle;html=1;whiteSpace=wrap;connectable=0;strokeColor=inherit;overflow=hidden;fillColor=none;top=0;left=0;bottom=0;right=0;pointerEvents=1;fontSize=16;" vertex="1" parent="Uqj9MseJblNBVu8EgiHg-114">
          <mxGeometry width="21" height="18" as="geometry">
            <mxRectangle width="21" height="18" as="alternateBounds" />
          </mxGeometry>
        </mxCell>
        <mxCell id="Uqj9MseJblNBVu8EgiHg-116" value="" style="shape=partialRectangle;html=1;whiteSpace=wrap;connectable=0;strokeColor=inherit;overflow=hidden;fillColor=none;top=0;left=0;bottom=0;right=0;pointerEvents=1;fontSize=16;" vertex="1" parent="Uqj9MseJblNBVu8EgiHg-114">
          <mxGeometry x="21" width="24" height="18" as="geometry">
            <mxRectangle width="24" height="18" as="alternateBounds" />
          </mxGeometry>
        </mxCell>
        <mxCell id="Uqj9MseJblNBVu8EgiHg-117" value="" style="shape=partialRectangle;html=1;whiteSpace=wrap;connectable=0;strokeColor=inherit;overflow=hidden;fillColor=none;top=0;left=0;bottom=0;right=0;pointerEvents=1;fontSize=16;" vertex="1" parent="Uqj9MseJblNBVu8EgiHg-114">
          <mxGeometry x="45" width="21" height="18" as="geometry">
            <mxRectangle width="21" height="18" as="alternateBounds" />
          </mxGeometry>
        </mxCell>
        <mxCell id="Uqj9MseJblNBVu8EgiHg-118" value="" style="shape=tableRow;horizontal=0;startSize=0;swimlaneHead=0;swimlaneBody=0;strokeColor=inherit;top=0;left=0;bottom=0;right=0;collapsible=0;dropTarget=0;fillColor=none;points=[[0,0.5],[1,0.5]];portConstraint=eastwest;fontSize=16;" vertex="1" parent="Uqj9MseJblNBVu8EgiHg-109">
          <mxGeometry y="38" width="66" height="19" as="geometry" />
        </mxCell>
        <mxCell id="Uqj9MseJblNBVu8EgiHg-119" value="" style="shape=partialRectangle;html=1;whiteSpace=wrap;connectable=0;strokeColor=inherit;overflow=hidden;fillColor=none;top=0;left=0;bottom=0;right=0;pointerEvents=1;fontSize=16;" vertex="1" parent="Uqj9MseJblNBVu8EgiHg-118">
          <mxGeometry width="21" height="19" as="geometry">
            <mxRectangle width="21" height="19" as="alternateBounds" />
          </mxGeometry>
        </mxCell>
        <mxCell id="Uqj9MseJblNBVu8EgiHg-120" value="" style="shape=partialRectangle;html=1;whiteSpace=wrap;connectable=0;strokeColor=inherit;overflow=hidden;fillColor=none;top=0;left=0;bottom=0;right=0;pointerEvents=1;fontSize=16;" vertex="1" parent="Uqj9MseJblNBVu8EgiHg-118">
          <mxGeometry x="21" width="24" height="19" as="geometry">
            <mxRectangle width="24" height="19" as="alternateBounds" />
          </mxGeometry>
        </mxCell>
        <mxCell id="Uqj9MseJblNBVu8EgiHg-121" value="" style="shape=partialRectangle;html=1;whiteSpace=wrap;connectable=0;strokeColor=inherit;overflow=hidden;fillColor=none;top=0;left=0;bottom=0;right=0;pointerEvents=1;fontSize=16;" vertex="1" parent="Uqj9MseJblNBVu8EgiHg-118">
          <mxGeometry x="45" width="21" height="19" as="geometry">
            <mxRectangle width="21" height="19" as="alternateBounds" />
          </mxGeometry>
        </mxCell>
        <mxCell id="Uqj9MseJblNBVu8EgiHg-96" value="" style="shape=table;startSize=0;container=1;collapsible=0;childLayout=tableLayout;fontSize=16;fillColor=#d5e8d4;strokeColor=#82b366;movable=1;resizable=1;rotatable=1;deletable=1;editable=1;locked=0;connectable=1;" vertex="1" parent="1">
          <mxGeometry x="227" y="845" width="66" height="57" as="geometry" />
        </mxCell>
        <mxCell id="Uqj9MseJblNBVu8EgiHg-97" value="" style="shape=tableRow;horizontal=0;startSize=0;swimlaneHead=0;swimlaneBody=0;strokeColor=inherit;top=0;left=0;bottom=0;right=0;collapsible=0;dropTarget=0;fillColor=none;points=[[0,0.5],[1,0.5]];portConstraint=eastwest;fontSize=16;" vertex="1" parent="Uqj9MseJblNBVu8EgiHg-96">
          <mxGeometry width="66" height="20" as="geometry" />
        </mxCell>
        <mxCell id="Uqj9MseJblNBVu8EgiHg-98" value="" style="shape=partialRectangle;html=1;whiteSpace=wrap;connectable=0;strokeColor=inherit;overflow=hidden;fillColor=none;top=0;left=0;bottom=0;right=0;pointerEvents=1;fontSize=16;" vertex="1" parent="Uqj9MseJblNBVu8EgiHg-97">
          <mxGeometry width="21" height="20" as="geometry">
            <mxRectangle width="21" height="20" as="alternateBounds" />
          </mxGeometry>
        </mxCell>
        <mxCell id="Uqj9MseJblNBVu8EgiHg-99" value="" style="shape=partialRectangle;html=1;whiteSpace=wrap;connectable=0;strokeColor=inherit;overflow=hidden;fillColor=none;top=0;left=0;bottom=0;right=0;pointerEvents=1;fontSize=16;" vertex="1" parent="Uqj9MseJblNBVu8EgiHg-97">
          <mxGeometry x="21" width="24" height="20" as="geometry">
            <mxRectangle width="24" height="20" as="alternateBounds" />
          </mxGeometry>
        </mxCell>
        <mxCell id="Uqj9MseJblNBVu8EgiHg-100" value="" style="shape=partialRectangle;html=1;whiteSpace=wrap;connectable=0;strokeColor=inherit;overflow=hidden;fillColor=none;top=0;left=0;bottom=0;right=0;pointerEvents=1;fontSize=16;" vertex="1" parent="Uqj9MseJblNBVu8EgiHg-97">
          <mxGeometry x="45" width="21" height="20" as="geometry">
            <mxRectangle width="21" height="20" as="alternateBounds" />
          </mxGeometry>
        </mxCell>
        <mxCell id="Uqj9MseJblNBVu8EgiHg-101" value="" style="shape=tableRow;horizontal=0;startSize=0;swimlaneHead=0;swimlaneBody=0;strokeColor=inherit;top=0;left=0;bottom=0;right=0;collapsible=0;dropTarget=0;fillColor=none;points=[[0,0.5],[1,0.5]];portConstraint=eastwest;fontSize=16;" vertex="1" parent="Uqj9MseJblNBVu8EgiHg-96">
          <mxGeometry y="20" width="66" height="18" as="geometry" />
        </mxCell>
        <mxCell id="Uqj9MseJblNBVu8EgiHg-102" value="" style="shape=partialRectangle;html=1;whiteSpace=wrap;connectable=0;strokeColor=inherit;overflow=hidden;fillColor=none;top=0;left=0;bottom=0;right=0;pointerEvents=1;fontSize=16;" vertex="1" parent="Uqj9MseJblNBVu8EgiHg-101">
          <mxGeometry width="21" height="18" as="geometry">
            <mxRectangle width="21" height="18" as="alternateBounds" />
          </mxGeometry>
        </mxCell>
        <mxCell id="Uqj9MseJblNBVu8EgiHg-103" value="" style="shape=partialRectangle;html=1;whiteSpace=wrap;connectable=0;strokeColor=inherit;overflow=hidden;fillColor=none;top=0;left=0;bottom=0;right=0;pointerEvents=1;fontSize=16;" vertex="1" parent="Uqj9MseJblNBVu8EgiHg-101">
          <mxGeometry x="21" width="24" height="18" as="geometry">
            <mxRectangle width="24" height="18" as="alternateBounds" />
          </mxGeometry>
        </mxCell>
        <mxCell id="Uqj9MseJblNBVu8EgiHg-104" value="" style="shape=partialRectangle;html=1;whiteSpace=wrap;connectable=0;strokeColor=inherit;overflow=hidden;fillColor=none;top=0;left=0;bottom=0;right=0;pointerEvents=1;fontSize=16;" vertex="1" parent="Uqj9MseJblNBVu8EgiHg-101">
          <mxGeometry x="45" width="21" height="18" as="geometry">
            <mxRectangle width="21" height="18" as="alternateBounds" />
          </mxGeometry>
        </mxCell>
        <mxCell id="Uqj9MseJblNBVu8EgiHg-105" value="" style="shape=tableRow;horizontal=0;startSize=0;swimlaneHead=0;swimlaneBody=0;strokeColor=inherit;top=0;left=0;bottom=0;right=0;collapsible=0;dropTarget=0;fillColor=none;points=[[0,0.5],[1,0.5]];portConstraint=eastwest;fontSize=16;" vertex="1" parent="Uqj9MseJblNBVu8EgiHg-96">
          <mxGeometry y="38" width="66" height="19" as="geometry" />
        </mxCell>
        <mxCell id="Uqj9MseJblNBVu8EgiHg-106" value="" style="shape=partialRectangle;html=1;whiteSpace=wrap;connectable=0;strokeColor=inherit;overflow=hidden;fillColor=none;top=0;left=0;bottom=0;right=0;pointerEvents=1;fontSize=16;" vertex="1" parent="Uqj9MseJblNBVu8EgiHg-105">
          <mxGeometry width="21" height="19" as="geometry">
            <mxRectangle width="21" height="19" as="alternateBounds" />
          </mxGeometry>
        </mxCell>
        <mxCell id="Uqj9MseJblNBVu8EgiHg-107" value="" style="shape=partialRectangle;html=1;whiteSpace=wrap;connectable=0;strokeColor=inherit;overflow=hidden;fillColor=none;top=0;left=0;bottom=0;right=0;pointerEvents=1;fontSize=16;" vertex="1" parent="Uqj9MseJblNBVu8EgiHg-105">
          <mxGeometry x="21" width="24" height="19" as="geometry">
            <mxRectangle width="24" height="19" as="alternateBounds" />
          </mxGeometry>
        </mxCell>
        <mxCell id="Uqj9MseJblNBVu8EgiHg-108" value="" style="shape=partialRectangle;html=1;whiteSpace=wrap;connectable=0;strokeColor=inherit;overflow=hidden;fillColor=none;top=0;left=0;bottom=0;right=0;pointerEvents=1;fontSize=16;" vertex="1" parent="Uqj9MseJblNBVu8EgiHg-105">
          <mxGeometry x="45" width="21" height="19" as="geometry">
            <mxRectangle width="21" height="19" as="alternateBounds" />
          </mxGeometry>
        </mxCell>
        <mxCell id="Uqj9MseJblNBVu8EgiHg-130" style="edgeStyle=orthogonalEdgeStyle;orthogonalLoop=1;jettySize=auto;html=1;entryX=0;entryY=0.5;entryDx=0;entryDy=0;" edge="1" parent="1" source="Uqj9MseJblNBVu8EgiHg-124" target="Uqj9MseJblNBVu8EgiHg-101">
          <mxGeometry relative="1" as="geometry" />
        </mxCell>
        <mxCell id="Uqj9MseJblNBVu8EgiHg-124" value="Embedding" style="rounded=1;whiteSpace=wrap;html=1;strokeWidth=2;fillColor=#f5f5f5;fontColor=#333333;strokeColor=#666666;" vertex="1" parent="1">
          <mxGeometry x="104" y="833.5" width="64" height="80" as="geometry" />
        </mxCell>
        <mxCell id="Uqj9MseJblNBVu8EgiHg-126" style="edgeStyle=orthogonalEdgeStyle;orthogonalLoop=1;jettySize=auto;html=1;entryX=0;entryY=0.5;entryDx=0;entryDy=0;" edge="1" parent="1" source="Uqj9MseJblNBVu8EgiHg-125" target="Uqj9MseJblNBVu8EgiHg-124">
          <mxGeometry relative="1" as="geometry" />
        </mxCell>
        <mxCell id="Uqj9MseJblNBVu8EgiHg-125" value="Report" style="text;html=1;align=center;verticalAlign=middle;whiteSpace=wrap;rounded=0;fillColor=#d5e8d4;strokeColor=#82b366;" vertex="1" parent="1">
          <mxGeometry y="858.5" width="60" height="30" as="geometry" />
        </mxCell>
        <mxCell id="Uqj9MseJblNBVu8EgiHg-137" value="" style="edgeStyle=orthogonalEdgeStyle;orthogonalLoop=1;jettySize=auto;html=1;" edge="1" parent="1" source="Uqj9MseJblNBVu8EgiHg-131" target="Uqj9MseJblNBVu8EgiHg-136">
          <mxGeometry relative="1" as="geometry" />
        </mxCell>
        <mxCell id="Uqj9MseJblNBVu8EgiHg-131" value="cross-attention&lt;div&gt;layer&lt;/div&gt;" style="rounded=1;whiteSpace=wrap;html=1;opacity=80;strokeColor=#FF6B6B;strokeWidth=3;" vertex="1" parent="1">
          <mxGeometry x="392" y="800" width="48" height="120" as="geometry" />
        </mxCell>
        <mxCell id="Uqj9MseJblNBVu8EgiHg-132" style="edgeStyle=orthogonalEdgeStyle;orthogonalLoop=1;jettySize=auto;html=1;exitX=1;exitY=0.5;exitDx=0;exitDy=0;entryX=0;entryY=0.5;entryDx=0;entryDy=0;" edge="1" parent="1" source="Uqj9MseJblNBVu8EgiHg-10" target="Uqj9MseJblNBVu8EgiHg-131">
          <mxGeometry relative="1" as="geometry" />
        </mxCell>
        <mxCell id="Uqj9MseJblNBVu8EgiHg-133" style="edgeStyle=orthogonalEdgeStyle;orthogonalLoop=1;jettySize=auto;html=1;exitX=1;exitY=0.5;exitDx=0;exitDy=0;entryX=-0.007;entryY=0.622;entryDx=0;entryDy=0;entryPerimeter=0;" edge="1" parent="1" source="Uqj9MseJblNBVu8EgiHg-88" target="Uqj9MseJblNBVu8EgiHg-131">
          <mxGeometry relative="1" as="geometry" />
        </mxCell>
        <mxCell id="Uqj9MseJblNBVu8EgiHg-134" value="&lt;font style=&quot;color: rgb(255, 22, 53); font-size: 14px;&quot;&gt;Linear Transformer&lt;/font&gt;" style="rounded=1;whiteSpace=wrap;html=1;opacity=40;strokeWidth=3;strokeColor=#CC0000;" vertex="1" parent="1">
          <mxGeometry x="648" y="788" width="128" height="44.75" as="geometry" />
        </mxCell>
        <mxCell id="Uqj9MseJblNBVu8EgiHg-147" value="" style="edgeStyle=orthogonalEdgeStyle;orthogonalLoop=1;jettySize=auto;html=1;fillColor=#f8cecc;strokeColor=#b85450;" edge="1" parent="1" source="Uqj9MseJblNBVu8EgiHg-136" target="Uqj9MseJblNBVu8EgiHg-146">
          <mxGeometry relative="1" as="geometry" />
        </mxCell>
        <mxCell id="Uqj9MseJblNBVu8EgiHg-136" value="resnet&lt;div&gt;output&lt;/div&gt;" style="whiteSpace=wrap;html=1;strokeColor=#8292FF;rounded=1;opacity=80;strokeWidth=5;" vertex="1" parent="1">
          <mxGeometry x="456" y="830" width="64" height="60" as="geometry" />
        </mxCell>
        <mxCell id="Uqj9MseJblNBVu8EgiHg-138" style="edgeStyle=orthogonalEdgeStyle;orthogonalLoop=1;jettySize=auto;html=1;exitX=1;exitY=0.5;exitDx=0;exitDy=0;entryX=0.5;entryY=1;entryDx=0;entryDy=0;" edge="1" parent="1" source="Uqj9MseJblNBVu8EgiHg-92" target="Uqj9MseJblNBVu8EgiHg-136">
          <mxGeometry relative="1" as="geometry">
            <Array as="points">
              <mxPoint x="344" y="883" />
              <mxPoint x="344" y="936" />
              <mxPoint x="488" y="936" />
            </Array>
          </mxGeometry>
        </mxCell>
        <mxCell id="Uqj9MseJblNBVu8EgiHg-148" style="edgeStyle=orthogonalEdgeStyle;orthogonalLoop=1;jettySize=auto;html=1;exitX=1;exitY=0.5;exitDx=0;exitDy=0;entryX=0;entryY=0.25;entryDx=0;entryDy=0;fillColor=#f8cecc;strokeColor=#b85450;" edge="1" parent="1" source="Uqj9MseJblNBVu8EgiHg-139" target="Uqj9MseJblNBVu8EgiHg-146">
          <mxGeometry relative="1" as="geometry" />
        </mxCell>
        <mxCell id="Uqj9MseJblNBVu8EgiHg-139" value="Feature&lt;div&gt;fusion&lt;/div&gt;" style="whiteSpace=wrap;html=1;strokeColor=#FF6B6B;rounded=1;opacity=50;strokeWidth=3;" vertex="1" parent="1">
          <mxGeometry x="400" y="683.5" width="52" height="96" as="geometry" />
        </mxCell>
        <mxCell id="Uqj9MseJblNBVu8EgiHg-141" style="edgeStyle=orthogonalEdgeStyle;orthogonalLoop=1;jettySize=auto;html=1;exitX=1;exitY=0.5;exitDx=0;exitDy=0;entryX=0;entryY=0.75;entryDx=0;entryDy=0;" edge="1" parent="1" source="Uqj9MseJblNBVu8EgiHg-84" target="Uqj9MseJblNBVu8EgiHg-139">
          <mxGeometry relative="1" as="geometry" />
        </mxCell>
        <mxCell id="Uqj9MseJblNBVu8EgiHg-142" style="edgeStyle=orthogonalEdgeStyle;orthogonalLoop=1;jettySize=auto;html=1;exitX=1;exitY=0.5;exitDx=0;exitDy=0;entryX=0;entryY=0.25;entryDx=0;entryDy=0;" edge="1" parent="1" source="Uqj9MseJblNBVu8EgiHg-6" target="Uqj9MseJblNBVu8EgiHg-139">
          <mxGeometry relative="1" as="geometry" />
        </mxCell>
        <mxCell id="Uqj9MseJblNBVu8EgiHg-143" value="" style="shape=curlyBracket;whiteSpace=wrap;html=1;rounded=1;labelPosition=left;verticalLabelPosition=middle;align=right;verticalAlign=middle;direction=north;" vertex="1" parent="1">
          <mxGeometry x="232" y="952" width="240" height="20" as="geometry" />
        </mxCell>
        <mxCell id="Uqj9MseJblNBVu8EgiHg-144" value="&lt;div style=&quot;line-height: 110%;&quot;&gt;&lt;font style=&quot;font-size: 12px;&quot;&gt;文本语义的增强&lt;/font&gt;&lt;/div&gt;" style="text;strokeColor=#666666;fillColor=#f5f5f5;html=1;fontSize=24;fontStyle=1;verticalAlign=middle;align=center;fontColor=#333333;" vertex="1" parent="1">
          <mxGeometry x="303" y="968" width="100" height="40" as="geometry" />
        </mxCell>
        <mxCell id="Uqj9MseJblNBVu8EgiHg-145" value="&lt;font style=&quot;font-size: 18px;&quot;&gt;Q-Former跨模态&lt;/font&gt;" style="text;html=1;align=center;verticalAlign=middle;whiteSpace=wrap;rounded=0;fillColor=#dae8fc;strokeColor=#6c8ebf;" vertex="1" parent="1">
          <mxGeometry x="384" y="1032" width="184" height="32" as="geometry" />
        </mxCell>
        <mxCell id="Uqj9MseJblNBVu8EgiHg-149" style="edgeStyle=orthogonalEdgeStyle;orthogonalLoop=1;jettySize=auto;html=1;exitX=1;exitY=0.5;exitDx=0;exitDy=0;entryX=0;entryY=0.5;entryDx=0;entryDy=0;" edge="1" parent="1" source="Uqj9MseJblNBVu8EgiHg-146" target="Uqj9MseJblNBVu8EgiHg-134">
          <mxGeometry relative="1" as="geometry" />
        </mxCell>
        <mxCell id="Uqj9MseJblNBVu8EgiHg-146" value="&lt;font color=&quot;#4d4d4d&quot;&gt;Fusion&lt;/font&gt;&lt;div&gt;&lt;font color=&quot;#4d4d4d&quot;&gt;weidu&amp;nbsp;&lt;/font&gt;&lt;/div&gt;&lt;div&gt;&lt;font color=&quot;#4d4d4d&quot;&gt;output&lt;/font&gt;&lt;/div&gt;" style="whiteSpace=wrap;html=1;strokeColor=#666666;rounded=1;opacity=80;strokeWidth=5;" vertex="1" parent="1">
          <mxGeometry x="560" y="749.5" width="64" height="122.5" as="geometry" />
        </mxCell>
        <mxCell id="Uqj9MseJblNBVu8EgiHg-150" value="&lt;font style=&quot;font-size: 24px;&quot;&gt;M&lt;/font&gt;&lt;div&gt;&lt;font style=&quot;font-size: 24px;&quot;&gt;e&lt;/font&gt;&lt;/div&gt;&lt;div&gt;&lt;font style=&quot;font-size: 24px;&quot;&gt;d&lt;/font&gt;&lt;/div&gt;&lt;div&gt;&lt;font style=&quot;font-size: 24px;&quot;&gt;i&lt;/font&gt;&lt;/div&gt;&lt;div&gt;&lt;font style=&quot;font-size: 24px;&quot;&gt;c&lt;/font&gt;&lt;/div&gt;&lt;div&gt;&lt;font style=&quot;font-size: 24px;&quot;&gt;a&lt;/font&gt;&lt;/div&gt;&lt;div&gt;&lt;font style=&quot;font-size: 24px;&quot;&gt;l&amp;nbsp;&lt;/font&gt;&lt;/div&gt;&lt;div&gt;&lt;font style=&quot;font-size: 24px;&quot;&gt;&amp;nbsp;&lt;/font&gt;&lt;/div&gt;&lt;div&gt;&lt;font style=&quot;font-size: 24px;&quot;&gt;L&lt;/font&gt;&lt;/div&gt;&lt;div&gt;&lt;font style=&quot;font-size: 24px;&quot;&gt;L&lt;/font&gt;&lt;/div&gt;&lt;div&gt;&lt;font style=&quot;font-size: 24px;&quot;&gt;M&lt;/font&gt;&lt;/div&gt;" style="rounded=1;whiteSpace=wrap;html=1;direction=west;opacity=50;fillColor=#e1d5e7;strokeColor=#9673a6;" vertex="1" parent="1">
          <mxGeometry x="912" y="632" width="40" height="373" as="geometry" />
        </mxCell>
        <mxCell id="Uqj9MseJblNBVu8EgiHg-151" style="edgeStyle=orthogonalEdgeStyle;orthogonalLoop=1;jettySize=auto;html=1;exitX=1;exitY=0.5;exitDx=0;exitDy=0;entryX=1.04;entryY=0.521;entryDx=0;entryDy=0;entryPerimeter=0;" edge="1" parent="1" source="Uqj9MseJblNBVu8EgiHg-134" target="Uqj9MseJblNBVu8EgiHg-150">
          <mxGeometry relative="1" as="geometry">
            <Array as="points">
              <mxPoint x="854" y="811" />
            </Array>
          </mxGeometry>
        </mxCell>
        <mxCell id="Uqj9MseJblNBVu8EgiHg-152" value="###Assisant" style="text;html=1;align=center;verticalAlign=middle;whiteSpace=wrap;rounded=0;fillColor=#f5f5f5;fontColor=#333333;strokeColor=#666666;" vertex="1" parent="1">
          <mxGeometry x="792" y="702" width="88" height="30" as="geometry" />
        </mxCell>
        <mxCell id="Uqj9MseJblNBVu8EgiHg-158" value="" style="rounded=1;whiteSpace=wrap;html=1;opacity=20;strokeWidth=5;strokeColor=#990000;movable=1;resizable=1;rotatable=1;deletable=1;editable=1;locked=0;connectable=1;" vertex="1" parent="1">
          <mxGeometry x="192" y="661" width="584" height="355" as="geometry" />
        </mxCell>
        <mxCell id="Uqj9MseJblNBVu8EgiHg-153" style="edgeStyle=orthogonalEdgeStyle;orthogonalLoop=1;jettySize=auto;html=1;exitX=1;exitY=0.5;exitDx=0;exitDy=0;entryX=1;entryY=0.773;entryDx=0;entryDy=0;entryPerimeter=0;" edge="1" parent="1" source="Uqj9MseJblNBVu8EgiHg-152" target="Uqj9MseJblNBVu8EgiHg-150">
          <mxGeometry relative="1" as="geometry" />
        </mxCell>
        <mxCell id="Uqj9MseJblNBVu8EgiHg-155" value="###Doctor:What are the findings and impression of the given x-ray?" style="text;html=1;align=center;verticalAlign=middle;whiteSpace=wrap;rounded=0;fillColor=#f5f5f5;fontColor=#333333;strokeColor=#666666;" vertex="1" parent="1">
          <mxGeometry x="784" y="880" width="104" height="100" as="geometry" />
        </mxCell>
        <mxCell id="Uqj9MseJblNBVu8EgiHg-156" style="edgeStyle=orthogonalEdgeStyle;orthogonalLoop=1;jettySize=auto;html=1;exitX=1;exitY=0.5;exitDx=0;exitDy=0;entryX=0.994;entryY=0.216;entryDx=0;entryDy=0;entryPerimeter=0;" edge="1" parent="1" source="Uqj9MseJblNBVu8EgiHg-155" target="Uqj9MseJblNBVu8EgiHg-150">
          <mxGeometry relative="1" as="geometry" />
        </mxCell>
        <mxCell id="DWeerXvAY5Q7kNKpNS9y-1" value="Text" style="text;html=1;align=center;verticalAlign=middle;whiteSpace=wrap;rounded=0;" vertex="1" parent="1">
          <mxGeometry x="512" y="832" width="60" height="30" as="geometry" />
        </mxCell>
        <mxCell id="Uqj9MseJblNBVu8EgiHg-157" value="Text" style="text;html=1;align=center;verticalAlign=middle;resizable=0;points=[];autosize=1;strokeColor=none;fillColor=none;" vertex="1" parent="1">
          <mxGeometry x="976" y="813" width="40" height="32" as="geometry" />
        </mxCell>
        <mxCell id="DWeerXvAY5Q7kNKpNS9y-3" value="&lt;div style=&quot;background-color: rgb(255, 255, 255); font-family: Consolas, &amp;quot;Courier New&amp;quot;, monospace; font-size: 14px; line-height: 19px; white-space: pre;&quot;&gt;Based on the x-ray image,&lt;/div&gt;&lt;div style=&quot;background-color: rgb(255, 255, 255); font-family: Consolas, &amp;quot;Courier New&amp;quot;, monospace; font-size: 14px; line-height: 19px; white-space: pre;&quot;&gt;the heart&lt;span style=&quot;background-color: light-dark(rgb(255, 255, 255), rgb(18, 18, 18)); color: light-dark(rgb(51, 51, 51), rgb(193, 193, 193));&quot;&gt;size &lt;/span&gt;&lt;span style=&quot;background-color: light-dark(rgb(255, 255, 255), rgb(18, 18, 18)); color: light-dark(rgb(0, 0, 0), rgb(255, 255, 255));&quot;&gt;is normal and &lt;/span&gt;&lt;/div&gt;&lt;div style=&quot;background-color: rgb(255, 255, 255); font-family: Consolas, &amp;quot;Courier New&amp;quot;, monospace; font-size: 14px; line-height: 19px; white-space: pre;&quot;&gt;&lt;span style=&quot;background-color: light-dark(rgb(255, 255, 255), rgb(18, 18, 18)); color: light-dark(rgb(0, 0, 0), rgb(255, 255, 255));&quot;&gt;the lungs appear &lt;/span&gt;&lt;span style=&quot;background-color: light-dark(rgb(255, 255, 255), rgb(18, 18, 18)); color: light-dark(rgb(0, 0, 0), rgb(255, 255, 255));&quot;&gt;clear.&lt;/span&gt;&lt;span style=&quot;background-color: light-dark(rgb(255, 255, 255), rgb(18, 18, 18)); color: light-dark(rgb(0, 0, 0), rgb(255, 255, 255));&quot;&gt;The &lt;/span&gt;&lt;/div&gt;&lt;div style=&quot;background-color: rgb(255, 255, 255); font-family: Consolas, &amp;quot;Courier New&amp;quot;, monospace; font-size: 14px; line-height: 19px; white-space: pre;&quot;&gt;&lt;span style=&quot;background-color: light-dark(rgb(255, 255, 255), rgb(18, 18, 18)); color: light-dark(rgb(0, 0, 0), rgb(255, 255, 255));&quot;&gt;presence &lt;/span&gt;&lt;span style=&quot;background-color: light-dark(rgb(255, 255, 255), rgb(18, 18, 18)); color: light-dark(rgb(0, 0, 0), rgb(255, 255, 255));&quot;&gt;of pneumonia,&lt;/span&gt;&lt;span style=&quot;background-color: light-dark(rgb(255, 255, 255), rgb(18, 18, 18)); color: light-dark(rgb(0, 0, 0), rgb(255, 255, 255));&quot;&gt;effusions,&lt;/span&gt;&lt;/div&gt;&lt;div style=&quot;background-color: rgb(255, 255, 255); font-family: Consolas, &amp;quot;Courier New&amp;quot;, monospace; font-size: 14px; line-height: 19px; white-space: pre;&quot;&gt;&lt;span style=&quot;background-color: light-dark(rgb(255, 255, 255), rgb(18, 18, 18)); color: light-dark(rgb(0, 0, 0), rgb(255, 255, 255));&quot;&gt; &lt;/span&gt;&lt;span style=&quot;background-color: light-dark(rgb(255, 255, 255), rgb(18, 18, 18)); color: light-dark(rgb(0, 0, 0), rgb(255, 255, 255));&quot;&gt;edema,pneumothorax, adenopathy,&lt;/span&gt;&lt;/div&gt;&lt;div style=&quot;background-color: rgb(255, 255, 255); font-family: Consolas, &amp;quot;Courier New&amp;quot;, monospace; font-size: 14px; line-height: 19px; white-space: pre;&quot;&gt;&lt;span style=&quot;background-color: light-dark(rgb(255, 255, 255), rgb(18, 18, 18)); color: light-dark(rgb(0, 0, 0), rgb(255, 255, 255));&quot;&gt; nodules &lt;/span&gt;&lt;span style=&quot;background-color: light-dark(rgb(255, 255, 255), rgb(18, 18, 18)); color: light-dark(rgb(0, 0, 0), rgb(255, 255, 255));&quot;&gt;or masses has been &lt;/span&gt;&lt;/div&gt;&lt;div style=&quot;background-color: rgb(255, 255, 255); font-family: Consolas, &amp;quot;Courier New&amp;quot;, monospace; font-size: 14px; line-height: 19px; white-space: pre;&quot;&gt;&lt;span style=&quot;background-color: light-dark(rgb(255, 255, 255), rgb(18, 18, 18)); color: light-dark(rgb(0, 0, 0), rgb(255, 255, 255));&quot;&gt;ruled out.The &lt;/span&gt;&lt;span style=&quot;background-color: light-dark(rgb(255, 255, 255), rgb(18, 18, 18)); color: light-dark(rgb(0, 0, 0), rgb(255, 255, 255));&quot;&gt;finding &lt;/span&gt;&lt;/div&gt;&lt;div style=&quot;background-color: rgb(255, 255, 255); font-family: Consolas, &amp;quot;Courier New&amp;quot;, monospace; font-size: 14px; line-height: 19px; white-space: pre;&quot;&gt;&lt;span style=&quot;background-color: light-dark(rgb(255, 255, 255), rgb(18, 18, 18)); color: light-dark(rgb(0, 0, 0), rgb(255, 255, 255));&quot;&gt;indicates everything is normal. &lt;/span&gt;&lt;/div&gt;&lt;div style=&quot;background-color: rgb(255, 255, 255); font-family: Consolas, &amp;quot;Courier New&amp;quot;, monospace; font-size: 14px; line-height: 19px; white-space: pre;&quot;&gt;&lt;span style=&quot;background-color: light-dark(rgb(255, 255, 255), rgb(18, 18, 18)); color: light-dark(rgb(0, 0, 0), rgb(255, 255, 255));&quot;&gt;In other &lt;/span&gt;&lt;span style=&quot;background-color: light-dark(rgb(255, 255, 255), rgb(18, 18, 18)); color: light-dark(rgb(0, 0, 0), rgb(255, 255, 255));&quot;&gt;words, &lt;/span&gt;&lt;span style=&quot;color: light-dark(rgb(0, 0, 0), rgb(255, 255, 255)); font-family: Helvetica; background-color: transparent;&quot;&gt;&lt;font face=&quot;Consolas, Courier New, monospace&quot;&gt;the overall &lt;/font&gt;&lt;/span&gt;&lt;/div&gt;&lt;div style=&quot;background-color: rgb(255, 255, 255); font-family: Consolas, &amp;quot;Courier New&amp;quot;, monospace; font-size: 14px; line-height: 19px; white-space: pre;&quot;&gt;&lt;span style=&quot;color: light-dark(rgb(0, 0, 0), rgb(255, 255, 255)); font-family: Helvetica; background-color: transparent;&quot;&gt;&lt;font face=&quot;Consolas, Courier New, monospace&quot;&gt;impression&lt;/font&gt;&lt;/span&gt;&lt;span style=&quot;color: light-dark(rgb(0, 0, 0), rgb(255, 255, 255)); font-family: Helvetica; background-color: transparent;&quot;&gt;&lt;font face=&quot;Consolas, Courier New, monospace&quot;&gt;is that of &lt;/font&gt;&lt;/span&gt;&lt;span style=&quot;color: light-dark(rgb(0, 0, 0), rgb(255, 255, 255)); font-family: Helvetica; background-color: transparent;&quot;&gt;&lt;font face=&quot;Consolas, Courier New, monospace&quot;&gt;a normal &lt;/font&gt;&lt;/span&gt;&lt;/div&gt;&lt;div style=&quot;background-color: rgb(255, 255, 255); font-family: Consolas, &amp;quot;Courier New&amp;quot;, monospace; font-size: 14px; line-height: 19px; white-space: pre;&quot;&gt;&lt;span style=&quot;color: light-dark(rgb(0, 0, 0), rgb(255, 255, 255)); font-family: Helvetica; background-color: transparent;&quot;&gt;&lt;font face=&quot;Consolas, Courier New, monospace&quot;&gt;chest.&lt;/font&gt;&lt;/span&gt;&lt;span style=&quot;color: light-dark(rgb(0, 0, 0), rgb(255, 255, 255)); font-family: Helvetica; background-color: transparent;&quot;&gt;&lt;font face=&quot;Consolas, Courier New, monospace&quot;&gt;Do you have &lt;/font&gt;&lt;/span&gt;&lt;span style=&quot;color: light-dark(rgb(0, 0, 0), rgb(255, 255, 255)); font-family: Helvetica; background-color: transparent;&quot;&gt;&lt;font face=&quot;Consolas, Courier New, monospace&quot;&gt;any questions &lt;/font&gt;&lt;/span&gt;&lt;/div&gt;&lt;div style=&quot;background-color: rgb(255, 255, 255); font-family: Consolas, &amp;quot;Courier New&amp;quot;, monospace; font-size: 14px; line-height: 19px; white-space: pre;&quot;&gt;&lt;span style=&quot;color: light-dark(rgb(0, 0, 0), rgb(255, 255, 255)); font-family: Helvetica; background-color: transparent;&quot;&gt;&lt;font face=&quot;Consolas, Courier New, monospace&quot;&gt;or &lt;/font&gt;&lt;/span&gt;&lt;span style=&quot;background-color: transparent; color: light-dark(rgb(0, 0, 0), rgb(255, 255, 255));&quot;&gt;concerns about this&lt;/span&gt;&lt;/div&gt;&lt;div style=&quot;background-color: rgb(255, 255, 255); font-family: Consolas, &amp;quot;Courier New&amp;quot;, monospace; font-size: 14px; line-height: 19px; white-space: pre;&quot;&gt;&lt;span style=&quot;background-color: transparent; color: light-dark(rgb(0, 0, 0), rgb(255, 255, 255));&quot;&gt; x-ray result?&lt;/span&gt;&lt;/div&gt;" style="text;html=1;align=center;verticalAlign=middle;whiteSpace=wrap;rounded=0;opacity=10;fillColor=#f5f5f5;fontColor=#333333;strokeColor=#0000FF;strokeWidth=7;" vertex="1" parent="1">
          <mxGeometry x="1000" y="708" width="256" height="264" as="geometry" />
        </mxCell>
        <mxCell id="DWeerXvAY5Q7kNKpNS9y-4" style="edgeStyle=orthogonalEdgeStyle;orthogonalLoop=1;jettySize=auto;html=1;exitX=0;exitY=0.5;exitDx=0;exitDy=0;entryX=-0.007;entryY=0.403;entryDx=0;entryDy=0;entryPerimeter=0;" edge="1" parent="1" source="Uqj9MseJblNBVu8EgiHg-150" target="DWeerXvAY5Q7kNKpNS9y-3">
          <mxGeometry relative="1" as="geometry" />
        </mxCell>
      </root>
    </mxGraphModel>
  </diagram>
  <diagram id="9Eceojx8FxdHI7RImeHf" name="第 2 页">
    <mxGraphModel grid="1" page="1" gridSize="8" guides="1" tooltips="1" connect="1" arrows="1" fold="1" pageScale="1" pageWidth="1200" pageHeight="1600" math="0" shadow="0">
      <root>
        <mxCell id="0" />
        <mxCell id="1" parent="0" />
      </root>
    </mxGraphModel>
  </diagram>
</mxfile>
